<?xml version="1.0" encoding="utf-8"?>
<svg id="Capa_1" style="enable-background:new 0 0 56 56;" x="0px" y="0px" viewBox="0 0 56 56" xmlns="http://www.w3.org/2000/svg">
  <defs>
    <style id="bx-google-fonts">@import url(https://fonts.googleapis.com/css?family=Allerta:400);</style>
  </defs>
  <path style="fill:#E9E9E0;" d="M 36.985 0 L 7.963 0 C 7.155 0 6.5 0.655 6.5 1.926 L 6.5 55 C 6.5 55.345 7.155 56 7.963 56 L 48.037 56 C 48.845 56 49.5 55.345 49.5 55 L 49.5 12.978 C 49.5 12.282 49.407 12.058 49.243 11.893 L 37.607 0.257 C 37.442 0.093 37.218 0 36.985 0 Z"/>
  <polygon style="fill:#D9D7CA;" points="37.5 0.151 37.5 12 49.349 12"/>
  <path d="M 48.037 56 L 7.963 56 C 7.155 56 6.5 55.345 6.5 54.537 L 6.5 39 L 49.5 39 L 49.5 54.537 C 49.5 55.345 48.845 56 48.037 56 Z" style="fill: rgb(31, 138, 67);"/>
  <g/>
  <g/>
  <g/>
  <g/>
  <g/>
  <g/>
  <g/>
  <g/>
  <g/>
  <g/>
  <g/>
  <g/>
  <g/>
  <g/>
  <g/>
  <text x="11.386" y="53.011" style="fill: rgb(255, 255, 255); font-family: Allerta; font-size: 14px; white-space: pre;">SASS</text>
  <path d="M 15.786 21.557 L 15.786 17.557 C 15.786 17.006 16.234 16.557 16.786 16.557 C 17.339 16.557 17.786 16.109 17.786 15.557 C 17.786 15.005 17.339 14.557 16.786 14.557 C 15.132 14.557 13.786 15.903 13.786 17.557 L 13.786 21.557 C 13.786 22.66 12.889 23.557 11.786 23.557 C 11.233 23.557 10.786 24.005 10.786 24.557 C 10.786 25.109 11.233 25.557 11.786 25.557 C 12.889 25.557 13.786 26.454 13.786 27.557 L 13.786 31.557 C 13.786 33.211 15.132 34.557 16.786 34.557 C 17.339 34.557 17.786 34.109 17.786 33.557 C 17.786 33.005 17.339 32.557 16.786 32.557 C 16.234 32.557 15.786 32.108 15.786 31.557 L 15.786 27.557 C 15.786 26.357 15.244 25.291 14.404 24.557 C 15.244 23.823 15.786 22.757 15.786 21.557 Z" style="fill: rgb(31, 138, 67);"/>
  <path d="M 44.093 23.617 C 42.99 23.617 42.093 22.72 42.093 21.617 L 42.093 17.617 C 42.093 15.963 40.747 14.617 39.093 14.617 C 38.54 14.617 38.093 15.065 38.093 15.617 C 38.093 16.169 38.54 16.617 39.093 16.617 C 39.645 16.617 40.093 17.066 40.093 17.617 L 40.093 21.617 C 40.093 22.817 40.635 23.883 41.475 24.617 C 40.635 25.351 40.093 26.417 40.093 27.617 L 40.093 31.617 C 40.093 32.168 39.645 32.617 39.093 32.617 C 38.54 32.617 38.093 33.065 38.093 33.617 C 38.093 34.169 38.54 34.617 39.093 34.617 C 40.747 34.617 42.093 33.271 42.093 31.617 L 42.093 27.617 C 42.093 26.514 42.99 25.617 44.093 25.617 C 44.646 25.617 45.093 25.169 45.093 24.617 C 45.093 24.065 44.646 23.617 44.093 23.617 Z" style="fill: rgb(31, 138, 67);"/>
  <text x="18.636" y="28.181" style="fill: rgb(31, 138, 67); font-family: Allerta; font-size: 10px; white-space: pre;">@ $</text>
</svg>